<svg width="45" height="45" viewBox="0 0 45 45" fill="none" xmlns="http://www.w3.org/2000/svg">
<path d="M35.1563 15.4688H13.3299L23.7003 5.09838C23.8325 4.96619 23.9063 4.7876 23.9063 4.60127C23.9063 4.41494 23.8325 4.23565 23.7003 4.10416L21.7118 2.11572C20.9145 1.31838 19.5251 1.31838 18.7285 2.11572L17.1225 3.72166L18.1168 4.71588L19.7234 3.10994C19.9885 2.84416 20.4518 2.84416 20.7176 3.10994L22.2096 4.60127L5.3044 21.5058L3.81308 20.0138C3.68019 19.8816 3.60706 19.7051 3.60706 19.5167C3.60706 19.3282 3.68019 19.1524 3.81308 19.0196L16.7105 6.12213L15.7163 5.12791L14.7509 6.0933L13.7567 5.09908C12.9333 4.27572 11.5953 4.27643 10.7733 5.09908L5.80151 10.0709C4.97886 10.8935 4.97886 12.2316 5.80151 13.0542L6.79573 14.0485L2.81815 18.026C2.41948 18.4247 2.20011 18.9542 2.20011 19.5181C2.20011 20.082 2.41948 20.6114 2.81815 21.0094L4.80659 22.9985C4.93878 23.1293 5.11808 23.2031 5.3044 23.2031C5.49073 23.2031 5.67003 23.1293 5.80151 22.9971L9.54073 19.2579L12.5016 41.76C12.6394 42.8049 13.538 43.5938 14.5927 43.5938H30.4074C31.4621 43.5938 32.3607 42.8049 32.4992 41.7593L34.9285 23.2946L33.5342 23.111L31.1049 41.5751C31.0585 41.9246 30.7589 42.1875 30.4074 42.1875H14.5927C14.2411 42.1875 13.9416 41.9246 13.8959 41.5758L10.7944 18.0042L11.9236 16.875H34.3547L33.904 20.2992L35.2983 20.4828L35.8538 16.264C35.8805 16.0629 35.8193 15.8611 35.6857 15.7085C35.5514 15.556 35.3588 15.4688 35.1563 15.4688ZM6.79644 12.0593C6.52222 11.7851 6.52222 11.3393 6.79644 11.0644L11.7682 6.0926C12.0417 5.81908 12.4882 5.81838 12.7632 6.0926L13.7574 7.08682L7.79136 13.0528L6.79644 12.0593Z" fill="white"/>
<path d="M20.3907 21.7969V37.2656C20.3907 38.4286 21.3371 39.375 22.5 39.375C23.663 39.375 24.6094 38.4286 24.6094 37.2656V21.7969C24.6094 20.6339 23.663 19.6875 22.5 19.6875C21.3371 19.6875 20.3907 20.6339 20.3907 21.7969ZM23.2032 21.7969V37.2656C23.2032 37.6531 22.8875 37.9688 22.5 37.9688C22.1126 37.9688 21.7969 37.6531 21.7969 37.2656V21.7969C21.7969 21.4095 22.1126 21.0938 22.5 21.0938C22.8875 21.0938 23.2032 21.4095 23.2032 21.7969Z" fill="white"/>
<path d="M14.7657 21.7969V37.2656C14.7657 38.4286 15.7121 39.375 16.875 39.375C18.038 39.375 18.9844 38.4286 18.9844 37.2656V21.7969C18.9844 20.6339 18.038 19.6875 16.875 19.6875C15.7121 19.6875 14.7657 20.6339 14.7657 21.7969ZM17.5782 21.7969V37.2656C17.5782 37.6531 17.2625 37.9688 16.875 37.9688C16.4876 37.9688 16.1719 37.6531 16.1719 37.2656V21.7969C16.1719 21.4095 16.4876 21.0938 16.875 21.0938C17.2625 21.0938 17.5782 21.4095 17.5782 21.7969Z" fill="white"/>
<path d="M26.0157 21.7969V37.2656C26.0157 38.4286 26.9621 39.375 28.125 39.375C29.288 39.375 30.2344 38.4286 30.2344 37.2656V21.7969C30.2344 20.6339 29.288 19.6875 28.125 19.6875C26.9621 19.6875 26.0157 20.6339 26.0157 21.7969ZM28.8282 21.7969V37.2656C28.8282 37.6531 28.5125 37.9688 28.125 37.9688C27.7376 37.9688 27.4219 37.6531 27.4219 37.2656V21.7969C27.4219 21.4095 27.7376 21.0938 28.125 21.0938C28.5125 21.0938 28.8282 21.4095 28.8282 21.7969Z" fill="white"/>
<path d="M26.1865 9.16175L23.374 8.45862C23.0991 8.39042 22.8101 8.49307 22.6414 8.71878L20.532 11.5313C20.4068 11.6979 20.3618 11.9117 20.4103 12.1149C20.4582 12.3181 20.5939 12.4889 20.7802 12.5824L23.5927 13.9887C23.689 14.0372 23.7973 14.0625 23.9063 14.0625H27.4219C27.6553 14.0625 27.8733 13.9465 28.0041 13.7539C28.1349 13.5612 28.1616 13.3151 28.0751 13.0985L26.6689 9.58292C26.5845 9.37339 26.4052 9.21659 26.1865 9.16175ZM24.0722 12.6563L22.1618 11.7014L23.4858 9.93659L25.4961 10.4393L26.3834 12.6563H24.0722Z" fill="white"/>
<path d="M35.0536 8.06626L34.3793 6.71697C34.2373 6.4329 33.9216 6.27962 33.6122 6.3422L30.0966 7.04533C29.7675 7.11072 29.5313 7.399 29.5313 7.73439V9.14064C29.5313 9.19829 29.5383 9.25525 29.5524 9.3115L30.2555 12.124C30.3342 12.4397 30.6183 12.6563 30.9368 12.6563C30.9664 12.6563 30.9952 12.6549 31.0247 12.6506L36.6497 11.9475C36.8986 11.9166 37.1117 11.7556 37.2094 11.5242C37.3071 11.2929 37.2748 11.0278 37.1243 10.8274L35.0536 8.06626ZM31.4684 11.1783L30.9375 9.05415V8.31095L33.3612 7.8265L33.8239 8.75251C33.8428 8.79048 33.8653 8.82634 33.8907 8.86009L35.273 10.7037L31.4684 11.1783Z" fill="white"/>
<path d="M30.9375 1.40627H32.3438V2.81252H30.9375V1.40627Z" fill="white"/>
<path d="M37.1278 5.77056L37.9849 6.88571C39.5396 5.69181 41.5343 5.22774 43.456 5.61095L43.7323 4.23212C41.4092 3.76806 39.0031 4.32915 37.1278 5.77056Z" fill="white"/>
<path d="M40.0782 8.43752H41.4844V9.84377H40.0782V8.43752Z" fill="white"/>
<path d="M33.75 4.92189H35.1563C35.1563 3.75892 36.1027 2.81252 37.2657 2.81252V1.40627C35.3271 1.40627 33.75 2.98337 33.75 4.92189Z" fill="white"/>
</svg>
