<?xml version="1.0" encoding="iso-8859-1"?>
<!-- Generator: Adobe Illustrator 19.0.0, SVG Export Plug-In . SVG Version: 6.00 Build 0)  -->
<svg version="1.1" id="Layer_1" xmlns="http://www.w3.org/2000/svg" xmlns:xlink="http://www.w3.org/1999/xlink" x="0px" y="0px"
	 viewBox="0 0 512.001 512.001" style="enable-background:new 0 0 512.001 512.001;" xml:space="preserve">
<rect x="24.001" y="168.001" style="fill:#BE1622;" width="464.003" height="24.001"/>
<g>
	<rect x="24.001" y="112.004" style="fill:#FAC15C;" width="464.003" height="56"/>
	<polygon style="fill:#FAC15C;" points="488.001,112 24.001,112 64,32 448,32 	"/>
</g>
<rect x="56" y="192.002" style="fill:#CBBBA0;" width="400.002" height="312"/>
<rect x="216.004" y="223.998" style="fill:#FFFFFF;" width="208" height="192.002"/>
<path style="fill:#FAC15C;" d="M304,352L304,352c-30.928,0-56-25.072-56-56v-32h112v32C360,326.928,334.928,352,304,352z"/>
<rect x="88.002" y="280.005" style="fill:#BE1622;" width="95.996" height="223.998"/>
<g>
	<rect x="48.001" style="fill:#1D1D1B;" width="416" height="16.001"/>
	<path style="fill:#1D1D1B;" d="M432.001,424H208V216h224.001L432.001,424L432.001,424z M224,408h192v-176H224V408z"/>
	<rect x="104" y="384.005" style="fill:#1D1D1B;" width="16.001" height="32"/>
</g>
<g>
	<rect x="88.002" y="216.004" style="fill:#FFFFFF;" width="95.996" height="16.001"/>
	<rect x="88.002" y="240.006" style="fill:#FFFFFF;" width="95.996" height="16.001"/>
</g>
<g>
	<rect x="240.006" y="367.997" style="fill:#1D1D1B;" width="159.997" height="16.001"/>
	<path style="fill:#1D1D1B;" d="M492.944,104l-39.999-79.999H59.056l-40,79.999H0v16.001h16.001v80h480v-80h16.001V104H492.944z
		 M68.943,40h374.113l31.999,64H36.944L68.943,40z M32,184v-8H480v8H32z M480,160H32v-40H480V160z"/>
	<path style="fill:#1D1D1B;" d="M464,208h-16.001v288H192V272H80V496h-16V208h-16v288H0v16.001h512V496h-48.001V208H464z M96,288
		H176v208H96V288z"/>
	<path style="fill:#1D1D1B;" d="M363.331,320.001h4.67c17.644,0,31.999-14.355,31.999-32c0-17.644-14.355-32-31.999-32H240v40
		c0,35.29,28.711,64.001,64,64.001C330.807,360,353.817,343.434,363.331,320.001z M368.001,296v-24c8.821,0,15.999,7.177,15.999,16
		c0,8.822-7.177,16.001-15.999,16.001h-0.498C367.832,301.378,368.001,298.71,368.001,296z M256,296v-24h96V296
		c0,26.468-21.532,48-48.001,48C277.533,344,256,322.468,256,296z"/>
</g>
<g>
	<rect x="208" y="440.001" style="fill:#FFFFFF;" width="15.999" height="16.001"/>
	<rect x="240.006" y="440.001" style="fill:#FFFFFF;" width="16.001" height="16.001"/>
	<rect x="272.001" y="440.001" style="fill:#FFFFFF;" width="16.001" height="16.001"/>
</g>
<g>
</g>
<g>
</g>
<g>
</g>
<g>
</g>
<g>
</g>
<g>
</g>
<g>
</g>
<g>
</g>
<g>
</g>
<g>
</g>
<g>
</g>
<g>
</g>
<g>
</g>
<g>
</g>
<g>
</g>
</svg>
