<svg width="42" height="42" viewBox="0 0 42 42" fill="none" xmlns="http://www.w3.org/2000/svg">
<g clip-path="url(#clip0)">
<path d="M38.0624 36.931H14.4371C14.0669 36.931 13.7152 36.7717 13.4658 36.4956L0.340584 21.8921C-0.113548 21.385 -0.113548 20.6123 0.340584 20.1052L13.4658 5.50175C13.7152 5.22827 14.0669 5.06895 14.4371 5.06895H38.0624C40.2333 5.06895 42 6.85589 42 9.05171V32.9483C42 35.1441 40.2333 36.931 38.0624 36.931ZM15.0172 34.2759H38.0624C38.7843 34.2759 39.3749 33.6811 39.3749 32.9483V9.05171C39.3749 8.31889 38.7843 7.72413 38.0624 7.72413H15.0172L3.08638 21L15.0172 34.2759Z" fill="white"/>
<path d="M32.7328 27.5172C32.3991 27.5172 32.0654 27.3895 31.8099 27.1366L21.3813 16.7074C20.8729 16.199 20.8729 15.3725 21.3813 14.8641C21.8897 14.3556 22.7161 14.3556 23.2245 14.8641L33.6532 25.2932C34.1615 25.8016 34.1615 26.6281 33.6532 27.1366C33.4003 27.3895 33.0665 27.5172 32.7328 27.5172Z" fill="white"/>
<path d="M22.3042 27.5172C21.9705 27.5172 21.6368 27.3895 21.3813 27.1366C20.8729 26.6281 20.8729 25.8016 21.3813 25.2932L31.8099 14.8641C32.3183 14.3556 33.1448 14.3556 33.6532 14.8641C34.1615 15.3725 34.1615 16.199 33.6532 16.7074L23.2245 27.1366C22.9716 27.3895 22.6379 27.5172 22.3042 27.5172V27.5172Z" fill="white"/>
</g>
<defs>
<clipPath id="clip0">
<rect width="42" height="42" fill="white"/>
</clipPath>
</defs>
</svg>
