<svg width="151" height="19" viewBox="0 0 151 19" fill="none" xmlns="http://www.w3.org/2000/svg">
<path d="M145.349 8.38425L75.4586 17.1792L5.56823 8.38425C4.26437 8.22576 2.18626 8.23033 0.926718 8.39439C-0.301745 8.55447 -0.301745 8.80821 0.926718 8.96824L73.1411 18.0548C74.4228 18.216 76.5006 18.216 77.7826 18.0548L149.997 8.96824C151.257 8.80418 151.22 8.5427 149.916 8.38421C148.644 8.2296 146.628 8.2296 145.355 8.38421L145.349 8.38425Z" fill="#607D8B"/>
<path d="M145.349 0.949791L75.4586 9.74476L5.56823 0.949791C4.26437 0.791305 2.18626 0.795874 0.926718 0.959936C-0.301745 1.12001 -0.301745 1.37375 0.926718 1.53382L73.1411 10.6204C74.4228 10.7816 76.5006 10.7816 77.7826 10.6204L149.997 1.53382C151.301 1.37534 151.337 1.11389 150.078 0.949791C148.818 0.785729 146.74 0.781199 145.436 0.939646C145.409 0.942976 145.382 0.946345 145.355 0.949791H145.349Z" fill="#607D8B"/>
<path d="M75.4598 18.1763C74.5886 18.1765 73.7525 18.1331 73.1358 18.0557L0.921463 8.96909C-0.338081 8.80503 -0.301769 8.54355 1.00209 8.38506C2.27425 8.23049 4.29081 8.23049 5.56266 8.38506L75.4595 17.1792L145.35 8.38425C146.654 8.22576 148.732 8.23033 149.991 8.39439C151.22 8.55447 151.22 8.80821 149.991 8.96828L77.7773 18.0548C77.1631 18.1323 76.3298 18.176 75.4598 18.1763Z" fill="black"/>
<path d="M75.4598 10.7418C74.5886 10.742 73.7525 10.6987 73.1358 10.6212L0.921463 1.53464C-0.338081 1.37057 -0.301769 1.10909 1.00209 0.950604C2.27425 0.796029 4.29081 0.796029 5.56297 0.950604L75.4598 9.74476L145.35 0.949791C146.61 0.785729 148.688 0.781199 149.992 0.939646C151.296 1.09809 151.332 1.35958 150.072 1.52368C150.046 1.52712 150.019 1.53049 149.992 1.53382L77.7773 10.6204C77.1631 10.6979 76.3298 10.7416 75.4598 10.7418Z" fill="black"/>
</svg>
