<svg width="25" height="24" viewBox="0 0 25 24" fill="none" xmlns="http://www.w3.org/2000/svg">
<path fill-rule="evenodd" clip-rule="evenodd" d="M14.6085 2.44076C14.9409 2.52836 15.2193 2.75514 15.3741 3.06354C15.9537 4.22394 16.3869 4.92838 16.8225 5.49958C17.2641 6.07798 17.7297 6.55075 18.4401 7.25995C20.0793 8.90035 20.9001 11.052 20.9001 13.2C20.9001 15.348 20.0793 17.4996 18.4401 19.14C15.1593 22.4196 9.8409 22.4196 6.5601 19.14C4.9209 17.4996 4.1001 15.348 4.1001 13.2C4.1001 11.052 4.9209 8.90035 6.5601 7.25995C6.9033 6.91675 7.4193 6.81475 7.8681 7.00075C8.3169 7.18555 8.6085 7.62359 8.6085 8.10839C8.6085 9.45239 8.6925 10.476 9.0861 11.2932C9.3021 11.742 9.63931 12.1812 10.2201 12.5736C10.3593 11.3004 10.6137 9.74878 10.9569 8.27758C11.2269 7.11838 11.5629 5.96157 11.9637 4.99677C12.1641 4.51317 12.3909 4.05474 12.6477 3.65754C12.8973 3.27114 13.2189 2.8788 13.6341 2.6016C13.9209 2.4108 14.2761 2.35196 14.6085 2.44076ZM15.0453 18.1451C13.6401 19.5515 11.3601 19.5515 9.9549 18.1451C9.2517 17.4431 8.9001 16.5216 8.9001 15.6C8.9001 15.6 9.9549 16.2 11.9001 16.2C11.9001 15 12.5001 11.4 13.4001 10.8C14.0001 12 14.3433 12.3516 15.0453 13.0548C15.7485 13.7568 16.1001 14.6784 16.1001 15.6C16.1001 16.5216 15.7485 17.4431 15.0453 18.1451Z" fill="#5768FA"/>
</svg>
