<svg width="25" height="24" viewBox="0 0 25 24" fill="none" xmlns="http://www.w3.org/2000/svg">
<path d="M12.5002 21.0002C14.622 21.0002 16.6569 20.1573 18.1572 18.657C18.9012 17.9149 19.4912 17.0331 19.8932 16.0623C20.2953 15.0915 20.5016 14.0508 20.5002 13C20.5015 11.9491 20.295 10.9084 19.8928 9.93756C19.4905 8.96674 18.9004 8.08499 18.1562 7.343C16.5902 5.777 14.5002 5 12.4862 3C10.0002 5 9.50021 8 9.50021 10C7.50021 9 6.84321 7.343 6.84321 7.343C5.34288 8.84333 4.5 10.8782 4.5 13C4.5 15.1218 5.34288 17.1567 6.84321 18.657C8.34354 20.1573 10.3784 21.0002 12.5002 21.0002Z" stroke="#B2C0CD" stroke-width="2" stroke-linecap="round" stroke-linejoin="round"/>
<path d="M11.6277 16.8702C11.1563 16.7268 10.7274 16.4695 10.379 16.121C9.793 15.536 9.5 14.768 9.5 14H11.5L12.515 11C13.0078 11.0024 13.4923 11.1261 13.9259 11.3602C14.3595 11.5943 14.7288 11.9316 15.0011 12.3423C15.2733 12.753 15.4402 13.2245 15.487 13.715C15.5338 14.2056 15.4591 14.7001 15.2694 15.1548C15.0797 15.6096 14.7809 16.0107 14.3994 16.3226C14.0179 16.6345 13.5655 16.8476 13.0821 16.9431C12.5986 17.0386 12.0991 17.0135 11.6277 16.8702Z" stroke="#B2C0CD" stroke-width="2" stroke-linecap="round" stroke-linejoin="round"/>
</svg>
