<svg width="25" height="24" viewBox="0 0 25 24" fill="none" xmlns="http://www.w3.org/2000/svg">
<path d="M3.5 12L5.5 10M5.5 10L12.5 3L19.5 10M5.5 10V20C5.5 20.2652 5.60536 20.5196 5.79289 20.7071C5.98043 20.8946 6.23478 21 6.5 21H9.5M19.5 10L21.5 12M19.5 10V20C19.5 20.2652 19.3946 20.5196 19.2071 20.7071C19.0196 20.8946 18.7652 21 18.5 21H15.5M9.5 21C9.76522 21 10.0196 20.8946 10.2071 20.7071C10.3946 20.5196 10.5 20.2652 10.5 20V16C10.5 15.7348 10.6054 15.4804 10.7929 15.2929C10.9804 15.1054 11.2348 15 11.5 15H13.5C13.7652 15 14.0196 15.1054 14.2071 15.2929C14.3946 15.4804 14.5 15.7348 14.5 16V20C14.5 20.2652 14.6054 20.5196 14.7929 20.7071C14.9804 20.8946 15.2348 21 15.5 21M9.5 21H15.5" stroke="#B2C0CD" stroke-width="2" stroke-linecap="round" stroke-linejoin="round"/>
</svg>
