<svg width="28" height="28" viewBox="0 0 28 28" fill="none" xmlns="http://www.w3.org/2000/svg">
<g clip-path="url(#clip0)">
<path d="M27.9132 7.07066C27.7106 6.66548 27.2179 6.5012 26.8126 6.70382L23.5314 8.34444C23.1262 8.54706 22.9619 9.03979 23.1646 9.44503C23.3671 9.85021 23.8598 10.0145 24.2651 9.81187L27.5463 8.17125C27.9516 7.96863 28.1158 7.4759 27.9132 7.07066Z" fill="white"/>
<path d="M27.5463 16.5475L24.2651 14.9069C23.8601 14.7044 23.3672 14.8685 23.1646 15.2737C22.9619 15.679 23.1262 16.1717 23.5314 16.3743L26.8126 18.015C27.2179 18.2176 27.7106 18.0533 27.9132 17.6481C28.1158 17.2429 27.9516 16.7501 27.5463 16.5475Z" fill="white"/>
<path d="M18.9218 13.1806H6.56245V9.02439C6.56245 6.76279 8.42696 4.92283 10.7187 4.92283C12.9803 4.92283 14.8203 6.76279 14.8203 9.02439V10.665C14.8203 11.118 15.1875 11.4853 15.6406 11.4853H18.9218C19.3749 11.4853 19.7421 11.118 19.7421 10.665V9.02439C19.7421 4.04892 15.6943 0.00100708 10.7188 0.00100708C5.71304 0.00106177 1.64063 4.04892 1.64063 9.02444V13.3218C0.685836 13.6604 0 14.5722 0 15.6416V25.54C0 26.8969 1.10398 28.0009 2.46094 28.0009H18.9218C20.2787 28.0009 21.3827 26.8969 21.3827 25.54V15.6416C21.3827 14.2846 20.2787 13.1806 18.9218 13.1806ZM3.28125 9.02444C3.28125 4.95356 6.61773 1.64169 10.7187 1.64169C14.7896 1.64169 18.1015 4.95362 18.1015 9.02444V9.84476H16.4608V9.02444C16.4608 5.8582 13.8849 3.28231 10.7187 3.28231C7.5431 3.28231 4.92188 5.85919 4.92188 9.02444V13.1807H3.28125V9.02444ZM19.7421 25.54C19.7421 25.9923 19.3741 26.3603 18.9218 26.3603H2.46094C2.00862 26.3603 1.64063 25.9923 1.64063 25.54V15.6416C1.64063 15.1893 2.00862 14.8213 2.46094 14.8213C3.22591 14.8213 18.2592 14.8213 18.9218 14.8213C19.3741 14.8213 19.7421 15.1893 19.7421 15.6416V25.54Z" fill="white"/>
<path d="M10.7188 16.4609C9.36179 16.4609 8.25781 17.5649 8.25781 18.9219C8.25781 19.9913 8.94365 20.9031 9.89844 21.2417V23.8984C9.89844 24.3515 10.2657 24.7188 10.7188 24.7188C11.1718 24.7188 11.5391 24.3515 11.5391 23.8984V21.2417C12.4939 20.9031 13.1797 19.9913 13.1797 18.9219C13.1797 17.5649 12.0757 16.4609 10.7188 16.4609ZM10.7188 19.7421C10.2664 19.7421 9.89844 19.3741 9.89844 18.9218C9.89844 18.4695 10.2664 18.1015 10.7188 18.1015C11.1711 18.1015 11.5391 18.4695 11.5391 18.9218C11.5391 19.3741 11.1711 19.7421 10.7188 19.7421Z" fill="white"/>
<path d="M27.1796 11.5391H23.8983C23.4453 11.5391 23.078 11.9063 23.078 12.3594C23.078 12.8124 23.4453 13.1797 23.8983 13.1797H27.1796C27.6326 13.1797 27.9999 12.8124 27.9999 12.3594C27.9999 11.9063 27.6326 11.5391 27.1796 11.5391Z" fill="white"/>
</g>
<defs>
<clipPath id="clip0">
<rect width="28" height="28" fill="white"/>
</clipPath>
</defs>
</svg>
