<svg width="32768" height="12787" viewBox="0 0 32768 12787" fill="none" xmlns="http://www.w3.org/2000/svg">
<path d="M12628.2 7650.76C12628.2 8014.61 12669.6 8331.98 12752.5 8602.85C12835.4 8873.72 12944.5 9099.11 13080 9279.02C13217.4 9458.93 13373.1 9594.36 13546.9 9685.33C13722.8 9774.27 13902.7 9818.74 14086.7 9818.74C14218.1 9818.74 14347.4 9794.49 14474.8 9745.97C14604.1 9697.46 14729.5 9624.69 14850.8 9527.66C14972 9430.63 15088.3 9309.34 15199.5 9163.8C15312.7 9018.26 15417.8 8847.45 15514.8 8651.37L15548.2 8587.69L15672.5 8681.69L15639.1 8745.36C15527.9 8969.74 15404.6 9166.83 15269.2 9336.63C15135.8 9506.43 14993.3 9648.94 14841.7 9764.17C14690.1 9877.37 14532.4 9963.28 14368.6 10021.9C14206.9 10080.5 14041.2 10109.8 13871.4 10109.8C13725.8 10109.8 13581.3 10088.6 13437.8 10046.2C13296.3 10005.7 13160.8 9944.07 13031.5 9861.19C12904.1 9776.29 12784.9 9670.17 12673.7 9542.82C12564.5 9415.47 12469.5 9266.89 12388.7 9097.09C12307.8 8925.27 12244.1 8732.22 12197.6 8517.95C12153.2 8301.66 12130.9 8064.14 12130.9 7805.4C12130.9 7463.77 12159.2 7154.49 12215.8 6877.56C12274.4 6598.6 12352.3 6350.97 12449.3 6134.68C12548.3 5916.37 12662.6 5727.36 12791.9 5567.67C12923.3 5407.98 13060.8 5276.58 13204.3 5173.49C13347.8 5068.37 13494.4 4990.55 13644 4940.01C13793.6 4889.48 13937.1 4864.21 14074.5 4864.21C14254.4 4864.21 14420.2 4895.54 14571.8 4958.21C14723.4 5018.85 14853.8 5105.77 14963 5218.97C15072.1 5330.15 15157 5466.6 15217.7 5628.31C15280.3 5788.01 15311.6 5965.89 15311.6 6161.97C15311.6 6349.96 15282.3 6526.84 15223.7 6692.6C15167.1 6858.35 15090.3 7003.9 14993.3 7129.23C14898.3 7252.53 14788.1 7350.57 14662.8 7423.35C14539.5 7496.12 14410.1 7532.5 14274.7 7532.5C14183.7 7532.5 14098.8 7516.33 14020 7483.99C13941.1 7451.65 13872.4 7406.16 13813.8 7347.54C13755.1 7288.92 13708.7 7217.16 13674.3 7132.26C13639.9 7047.36 13622.7 6953.36 13622.7 6850.27C13622.7 6751.22 13637.9 6656.21 13668.2 6565.25C13698.5 6472.26 13737 6387.36 13783.4 6310.55C13829.9 6231.71 13880.5 6162.98 13935.1 6104.36C13991.7 6043.72 14046.2 5996.21 14098.8 5961.85L14180.7 6043.72C14138.2 6092.23 14097.8 6144.79 14059.4 6201.39C14023 6255.97 13990.6 6315.6 13962.3 6380.29C13934 6442.95 13911.8 6510.67 13895.6 6583.44C13879.5 6656.21 13871.4 6735.05 13871.4 6819.95C13871.4 6906.87 13881.5 6984.69 13901.7 7053.42C13923.9 7122.15 13953.2 7180.77 13989.6 7229.29C14028 7277.8 14071.5 7315.2 14120 7341.48C14168.5 7365.73 14220.1 7377.86 14274.7 7377.86C14349.4 7377.86 14424.2 7350.57 14499 7295.99C14573.8 7239.39 14640.5 7157.53 14699.2 7050.39C14757.8 6941.23 14805.3 6807.82 14841.7 6650.15C14878.1 6492.47 14896.2 6310.55 14896.2 6104.36C14896.2 5918.39 14875 5757.68 14832.6 5622.25C14792.1 5484.79 14735.5 5371.59 14662.8 5282.65C14590 5193.7 14504.1 5128.01 14405 5085.56C14306 5041.09 14199.9 5018.85 14086.7 5018.85C14005.8 5018.85 13913.8 5037.04 13810.7 5073.43C13707.6 5107.79 13601.5 5165.4 13492.4 5246.26C13385.2 5327.12 13280.1 5434.25 13177 5567.67C13073.9 5699.06 12980.9 5862.8 12898.1 6058.88C12817.2 6252.93 12751.5 6481.36 12701 6744.14C12652.5 7006.93 12628.2 7309.13 12628.2 7650.76ZM17385.6 9203.22C17385.6 9318.44 17395.7 9415.47 17416 9494.3C17436.2 9573.14 17471.6 9612.56 17522.1 9612.56C17552.4 9612.56 17584.8 9598.41 17619.1 9570.11C17655.5 9539.79 17696.9 9491.27 17743.4 9424.56C17789.9 9357.86 17842.5 9271.95 17901.1 9166.83C17961.7 9059.7 18030.5 8929.31 18107.3 8775.68L18198.3 8587.69L18322.6 8681.69L18231.6 8869.68C18146.7 9039.48 18066.9 9192.1 17992.1 9327.54C17919.3 9460.95 17849.6 9574.15 17782.9 9667.14C17716.1 9760.12 17650.4 9831.88 17585.8 9882.42C17523.1 9930.93 17460.4 9955.19 17397.8 9955.19C17331.1 9955.19 17274.5 9937 17228 9900.61C17183.5 9864.23 17146.1 9814.7 17115.8 9752.04C17085.5 9687.35 17062.2 9613.57 17046 9530.69C17029.9 9445.79 17018.7 9355.84 17012.7 9260.83C16964.2 9357.86 16910.6 9448.82 16852 9533.72C16793.4 9616.6 16731.7 9689.37 16667 9752.04C16604.4 9814.7 16538.7 9864.23 16469.9 9900.61C16401.2 9937 16332.5 9955.19 16263.7 9955.19C16162.7 9955.19 16064.6 9933.97 15969.6 9891.52C15874.6 9849.07 15789.7 9784.38 15714.9 9697.46C15642.2 9610.54 15583.5 9501.38 15539.1 9369.99C15494.6 9236.57 15472.4 9079.91 15472.4 8900C15472.4 8689.77 15499.6 8497.74 15554.2 8323.89C15608.8 8148.03 15682.6 7997.43 15775.6 7872.1C15868.6 7744.75 15975.7 7646.71 16097 7577.98C16218.3 7507.23 16345.6 7471.86 16479 7471.86C16559.9 7471.86 16634.7 7490.05 16703.4 7526.44C16772.1 7562.82 16831.8 7607.3 16882.3 7659.85C16934.9 7710.39 16978.3 7764.97 17012.7 7823.59C17047 7880.19 17070.3 7928.7 17082.4 7969.13L17118.8 7675.01C17122.9 7636.61 17141 7604.26 17173.4 7577.98C17207.8 7551.71 17245.1 7531.49 17285.6 7517.34C17326 7501.17 17365.4 7490.05 17403.8 7483.99C17442.2 7475.9 17469.5 7471.86 17485.7 7471.86C17510 7471.86 17526.1 7475.9 17534.2 7483.99C17542.3 7492.07 17546.3 7508.25 17546.3 7532.5C17546.3 7562.82 17537.2 7624.48 17519.1 7717.46C17502.9 7808.43 17484.7 7925.67 17464.5 8069.19C17446.3 8210.69 17428.1 8377.46 17409.9 8569.5C17393.7 8761.53 17385.6 8972.77 17385.6 9203.22ZM17052.1 8402.73C17052.1 8309.74 17038 8218.78 17009.7 8129.84C16981.4 8038.87 16942.9 7959.03 16894.4 7890.3C16845.9 7819.55 16789.3 7762.95 16724.6 7720.5C16662 7678.05 16595.3 7656.82 16524.5 7656.82C16437.6 7656.82 16355.7 7682.09 16278.9 7732.62C16204.1 7781.14 16138.4 7850.88 16081.8 7941.84C16027.2 8030.79 15983.8 8138.93 15951.4 8266.28C15919.1 8391.61 15902.9 8530.08 15902.9 8681.69C15902.9 8984.9 15950.4 9216.36 16045.4 9376.05C16140.4 9533.72 16266.8 9612.56 16424.4 9612.56C16493.2 9612.56 16563.9 9585.27 16636.7 9530.69C16711.5 9474.09 16779.2 9394.24 16839.9 9291.15C16902.5 9186.04 16953.1 9058.68 16991.5 8909.1C17031.9 8759.51 17052.1 8590.72 17052.1 8402.73ZM19496 8587.69L19620.3 8681.69L19590 8745.36C19515.2 8894.95 19416.2 9014.21 19292.9 9103.16C19171.6 9190.08 19038.2 9233.54 18892.6 9233.54C18850.2 9233.54 18805.7 9229.5 18759.2 9221.41C18714.7 9211.3 18670.3 9197.15 18625.8 9178.96V11477.3L18316.5 11507.7C18292.3 11166 18271 10797.1 18252.8 10400.9C18244.7 10231.1 18236.7 10047.2 18228.6 9849.07C18222.5 9650.97 18216.4 9442.76 18210.4 9224.44C18204.3 9004.11 18200.3 8775.68 18198.3 8539.18C18194.2 8300.65 18192.2 8058.08 18192.2 7811.46C18192.2 7423.35 18213.4 7080.71 18255.9 6783.56C18298.3 6486.41 18354.9 6236.76 18425.7 6034.62C18498.4 5832.48 18581.3 5679.86 18674.3 5576.77C18767.3 5473.67 18865.3 5422.13 18968.4 5422.13C19006.8 5422.13 19043.2 5429.2 19077.6 5443.35C19111.9 5455.48 19141.3 5475.69 19165.5 5503.99C19191.8 5532.29 19212 5570.7 19226.2 5619.22C19240.3 5667.73 19247.4 5726.35 19247.4 5795.08C19247.4 5968.92 19227.2 6160.96 19186.7 6371.19C19146.3 6579.4 19094.8 6790.64 19032.1 7004.91C18971.5 7219.18 18904.7 7429.41 18832 7635.6C18759.2 7839.76 18690.5 8024.72 18625.8 8190.48V8869.68C18644 8893.94 18665.2 8915.16 18689.5 8933.36C18715.7 8951.55 18743 8966.71 18771.3 8978.84C18801.7 8988.95 18832 8997.03 18862.3 9003.1C18892.6 9009.16 18919.9 9012.19 18944.2 9012.19C19049.3 9012.19 19146.3 8984.9 19235.3 8930.32C19324.2 8875.75 19401 8782.76 19465.7 8651.37L19496 8587.69ZM18625.8 7799.33C18676.3 7655.81 18723.8 7506.22 18768.3 7350.57C18812.8 7194.92 18852.2 7038.26 18886.6 6880.59C18920.9 6720.9 18948.2 6562.21 18968.4 6404.54C18988.6 6246.87 18998.7 6095.26 18998.7 5949.72C18998.7 5856.73 18989.6 5781.94 18971.5 5725.34C18953.3 5668.74 18918.9 5640.44 18868.4 5640.44C18823.9 5640.44 18785.5 5685.92 18753.1 5776.89C18722.8 5867.85 18697.5 5991.16 18677.3 6146.81C18659.1 6300.44 18646 6481.36 18637.9 6689.56C18629.8 6895.75 18625.8 7115.08 18625.8 7347.54V7799.33ZM20390.5 9612.56C20461.3 9612.56 20533 9594.36 20605.8 9557.98C20680.6 9521.59 20755.4 9464.99 20830.2 9388.18C20907 9311.36 20985.8 9212.31 21066.7 9091.03C21147.5 8967.72 21230.4 8821.17 21315.3 8651.37L21345.6 8587.69L21469.9 8681.69L21439.6 8745.36C21330.5 8961.66 21221.3 9146.62 21112.2 9300.25C21005 9453.88 20898.9 9579.2 20793.8 9676.23C20690.7 9773.26 20588.6 9844.01 20487.5 9888.48C20386.5 9932.96 20289.4 9955.19 20196.4 9955.19C20065 9955.19 19947.8 9927.9 19844.7 9873.32C19741.6 9818.74 19654.7 9744.96 19583.9 9651.98C19513.2 9556.97 19459.6 9447.81 19423.2 9324.5C19384.8 9199.17 19365.6 9067.78 19365.6 8930.32C19365.6 8712.01 19396 8513.91 19456.6 8336.02C19515.2 8156.11 19594.1 8002.49 19693.1 7875.14C19794.2 7747.79 19908.4 7648.73 20035.7 7577.98C20163.1 7507.23 20295.5 7471.86 20433 7471.86C20572.4 7471.86 20678.6 7507.23 20751.3 7577.98C20826.1 7648.73 20863.5 7737.68 20863.5 7844.81C20863.5 7947.91 20834.2 8044.94 20775.6 8135.9C20717 8224.84 20637.1 8312.78 20536 8399.7C20437 8484.6 20321.8 8569.5 20190.4 8654.4C20059 8737.28 19920.5 8823.19 19775 8912.13C19789.1 9017.25 19813.4 9113.26 19847.7 9200.19C19882.1 9285.09 19925.6 9358.87 19978.1 9421.53C20030.7 9482.18 20091.3 9529.68 20160.1 9564.04C20228.8 9596.39 20305.6 9612.56 20390.5 9612.56ZM20484.5 7935.78C20484.5 7854.92 20462.3 7791.25 20417.8 7744.75C20375.3 7698.26 20322.8 7675.01 20260.1 7675.01C20207.6 7675.01 20152 7694.22 20093.3 7732.62C20034.7 7769.01 19981.2 7828.64 19932.6 7911.52C19884.1 7992.38 19843.7 8096.48 19811.4 8223.83C19779 8351.18 19762.8 8505.82 19762.8 8687.75V8757.49C19831.6 8721.11 19907.4 8673.6 19990.3 8614.98C20075.2 8554.34 20154 8487.63 20226.8 8414.86C20299.5 8342.09 20360.2 8265.27 20408.7 8184.41C20459.2 8101.54 20484.5 8018.66 20484.5 7935.78Z" fill="#FE0C18"/>
<path d="M25020.9 1511.64C24860 1350.77 24681.2 1511.64 24681.2 1511.64C24681.2 1511.64 24396.9 1722.39 24270.1 1904.87C24270.1 1904.87 24037.8 2226.6 24019.9 2601.95C24002.1 2977.31 24198.6 3173.92 24377.4 3352.66C24556.1 3531.4 24663.4 3513.53 24681.2 3781.64C24699.1 4049.75 24448.9 4264.23 24448.9 4264.23L24145 4532.34C24145 4532.34 23930.5 4657.46 24109.3 4836.2C24288 5014.94 24502.5 4818.33 24502.5 4818.33C24502.5 4818.33 24717 4639.59 24824.2 4532.34C24931.5 4425.1 25128.1 4121.24 25163.8 3781.64C25199.6 3442.03 24824.2 3156.05 24824.2 3156.05C24824.2 3156.05 24520.4 2977.31 24520.4 2601.95C24520.4 2226.6 24824.2 1976.36 24824.2 1976.36L25020.9 1779.75C25020.9 1779.75 25181.7 1672.51 25020.9 1511.64Z" fill="#FE0D18"/>
<path d="M26755.7 1511.64C26594.9 1350.77 26416.1 1511.64 26416.1 1511.64C26416.1 1511.64 26131.8 1722.39 26005 1904.87C26005 1904.87 25772.7 2226.6 25754.8 2601.95C25736.9 2977.31 25933.5 3173.92 26112.3 3352.66C26291 3531.4 26398.3 3513.53 26416.1 3781.64C26434 4049.75 26183.8 4264.23 26183.8 4264.23L25879.9 4532.34C25879.9 4532.34 25665.4 4657.46 25844.2 4836.2C26022.9 5014.94 26237.4 4818.33 26237.4 4818.33C26237.4 4818.33 26451.9 4639.59 26559.1 4532.34C26666.4 4425.1 26863 4121.24 26898.7 3781.64C26934.5 3442.03 26559.1 3156.05 26559.1 3156.05C26559.1 3156.05 26255.3 2977.31 26255.3 2601.95C26255.3 2226.6 26559.1 1976.36 26559.1 1976.36L26755.7 1779.75C26755.7 1779.75 26916.6 1672.51 26755.7 1511.64Z" fill="#FE0D18"/>
<path d="M28507.4 1511.64C28346.5 1350.77 28167.8 1511.64 28167.8 1511.64C28167.8 1511.64 27883.4 1722.39 27756.7 1904.87C27756.7 1904.87 27524.3 2226.6 27506.4 2601.95C27488.6 2977.31 27685.2 3173.92 27863.9 3352.66C28042.7 3531.4 28149.9 3513.53 28167.8 3781.64C28185.7 4049.75 27935.4 4264.23 27935.4 4264.23L27631.6 4532.34C27631.6 4532.34 27417.1 4657.46 27595.8 4836.2C27774.6 5014.94 27989 4818.33 27989 4818.33C27989 4818.33 28203.5 4639.59 28310.8 4532.34C28418 4425.1 28614.6 4121.24 28650.4 3781.64C28686.1 3442.03 28310.8 3156.05 28310.8 3156.05C28310.8 3156.05 28006.9 2977.31 28006.9 2601.95C28006.9 2226.6 28310.8 1976.36 28310.8 1976.36L28507.4 1779.75C28507.4 1779.75 28668.3 1672.51 28507.4 1511.64Z" fill="#FE0D18"/>
<path fill-rule="evenodd" clip-rule="evenodd" d="M23019 5014.95H29846.8C30186.4 5014.95 30472.4 5175.81 30472.4 5551.17V5801.4C30472.4 5801.4 30812 5569.04 31205.3 5586.91C31598.5 5604.79 31884.5 5801.4 31884.5 5801.4C31884.5 5801.4 32456.4 6212.5 32438.6 6855.97C32420.7 7499.43 31884.5 8071.4 31884.5 8071.4C31884.5 8071.4 31582.6 8381.9 31366.1 8554C31117.6 8751.56 30722.7 9000.85 30722.7 9000.85C30722.7 9000.85 30566.1 9107.18 30472.4 9108.09C30369.4 9109.09 30240.1 8982.97 30240.1 8982.97C30240.1 8982.97 30079.2 9483.44 29382.1 10055.4C28685 10627.4 27987.9 10573.8 27987.9 10573.8H24806.4C24806.4 10573.8 23751.8 10627.4 23036.8 9590.69C22321.9 8554 22447 7660.3 22447 7660.3C22447 7660.3 22447 5890.77 22447 5551.17C22447 5211.56 22679.4 5014.95 23019 5014.95ZM22983.2 7731.79V5551.17L29918.3 5551.17V7713.92C29918.3 9394.07 28595.6 10126.9 27684.1 10126.9H25271.1C24180.8 10126.9 22983.2 9286.83 22983.2 7731.79ZM30472.4 7999.9V6426.99H30561.8C30561.8 6426.99 30740.5 6266.12 30865.6 6194.63C30990.8 6123.13 31169.5 6123.13 31169.5 6123.13C31169.5 6123.13 31348.2 6123.13 31491.2 6194.63C31491.2 6194.63 31902.3 6355.5 31902.3 6855.97C31902.3 7356.44 31455.5 7767.54 31455.5 7767.54C31044.4 8196.52 30347.3 8554 30347.3 8554C30347.3 8554 30472.4 8285.89 30472.4 7999.9Z" fill="#FE0D18"/>
<path d="M5363.9 292.296C5363.9 292.296 5073.57 352.775 5054.75 383.824C5035.94 414.873 5035.58 421.313 5054.75 424.863C5073.92 428.413 9360.88 1137.48 9445.92 1147.1C9530.97 1156.71 9565.8 1147.1 9565.8 1147.1C9565.8 1147.1 9583.62 1147.64 9590.91 1128.2C9598.2 1108.76 9577.95 1082.3 9565.8 1074.74C9553.65 1067.18 9515.31 1051.79 9480.48 1043.15C9445.65 1034.51 5487.55 295.095 5452.18 292.296C5416.81 289.498 5363.9 292.296 5363.9 292.296Z" fill="black" stroke="black"/>
<path d="M443.269 5648.96C444.349 5619.26 447.859 5538.27 451.099 5483.19C454.339 5428.11 489.978 5431.08 523.997 5449.17C558.016 5467.26 651.974 5517.48 651.974 5517.48L1204.11 5783.42L1634.48 5989.42L2027.05 6145.48L2496.03 6344.74L2823.26 6467.31C2823.26 6467.31 10393.9 9262.55 10415.7 9272.54C10437.6 9282.53 10464.9 9304.41 10493.2 9327.38C10526.7 9354.58 10532.6 9389.72 10493.2 9418.88C10453.8 9448.04 10261 9573.86 10261 9573.86C10261 9573.86 10207.3 9600.85 10180.8 9595.72C10154.4 9590.6 10100.4 9573.86 10100.4 9573.86L3598.41 7174.15L2317.29 6696.27L2080.24 6615.81L1897.45 6531.57L1019.97 6031.54C1019.97 6031.54 502.668 5736.48 483.768 5725.39C464.868 5714.3 442.189 5678.66 443.269 5648.96Z" fill="black" stroke="black"/>
<path d="M424.639 5994.55C423.559 6011.29 412.759 6197.05 414.379 6224.86C415.999 6252.67 462.978 6287.5 462.978 6287.5L1111.23 6782.39L1640.42 7204.39L1731.41 7271.08L1834.27 7327.51L1955.5 7370.17L9325.24 10064.4C9325.24 10064.4 9438.36 10103.9 9458.62 10096.6C9478.87 10089.3 9517.2 10064.4 9517.2 10064.4L9755.61 9910.81C9755.61 9910.81 9800.43 9875.44 9806.1 9866.26C9811.76 9857.08 9811.76 9843.04 9806.1 9830.08C9800.43 9817.12 9755.61 9799.84 9755.61 9799.84L9517.2 9721L7453.1 8967.72L6265.4 8529.25L3135.1 7378.27L1955.5 6939.8L1731.41 6828.83L529.666 5982.4C529.666 5982.4 488.58 5961.1 462.978 5968.36C445.535 5973.32 425.719 5977.81 424.639 5994.55Z" fill="black" stroke="black"/>
<path d="M406.55 6543.99C405.74 6555.33 389.54 6723.8 396.29 6749.99C403.04 6776.18 452.989 6826.67 452.989 6826.67L1440.62 7810.26L1557.53 7929.59L1650.68 8006.27L1731.41 8042.72L8030.62 10300.7C8030.62 10300.7 8624.33 10525.6 8675.09 10545C8725.85 10564.5 8802.53 10550.7 8828.45 10534.8C8854.37 10518.8 9060.64 10377.4 9060.64 10377.4C9060.64 10377.4 9084.13 10356.3 9091.15 10343.1C9098.17 10329.8 9091.15 10307.4 9080.89 10300.7C9070.63 10293.9 9012.31 10268.3 9012.31 10268.3L2664.5 7976.03L2028.13 7737.63L1794.05 7658.79C1794.05 7658.79 1676.33 7596.96 1650.68 7578.06C1625.03 7559.16 461.898 6516.18 452.989 6509.7C444.079 6503.22 436.017 6505.61 426.529 6509.7C412.298 6515.84 407.36 6532.65 406.55 6543.99Z" fill="black" stroke="black"/>
<path d="M383.331 7087.49C381.171 7103.96 372.318 7314.01 373.881 7332.37C375.443 7350.73 454.339 7431.19 454.339 7431.19L1357.74 8532.22L1439 8633.74L1560.77 8722.03L1689.56 8784.12C1689.56 8784.12 7923.43 11008.3 7959.07 11021.6C7994.71 11034.8 8082.73 11034.2 8117.29 11014.8C8151.85 10995.4 8349.48 10854.2 8359.74 10845.5C8370 10836.9 8375.6 10828.3 8377.56 10814.5C8379.56 10800.4 8375.49 10791.6 8368.65 10779.1C8359.86 10763.1 8341.11 10751.6 8334.09 10747.5C8327.07 10743.5 8256.6 10716.2 8256.6 10716.2L1915.81 8445.01L1655.81 8361.04L1528.64 8273.84L740.532 7410.94L532.907 7178.2C532.907 7178.2 456.769 7063.73 450.559 7056.71C444.349 7049.69 424.666 7050.28 410.33 7056.71C395.739 7063.25 385.49 7071.02 383.331 7087.49Z" fill="black" stroke="black"/>
<path d="M1383.66 1931.42C1364.22 1983.26 1285.65 2233.55 1282.14 2265.68C1278.63 2297.8 1270.17 2317.95 1291.86 2333.85C1301.5 2340.92 1307.52 2344.25 1321.02 2343.16C1334.52 2342.08 1383.66 2305.91 1383.66 2305.91C1383.66 2305.91 1544.3 2187.65 1588.58 2177.93C1632.86 2168.21 1751.39 2177.93 1751.39 2177.93L8539.56 3841.36L8774.72 3922.62L8932.94 4006.32L9011.77 4071.66C9011.77 4071.66 11195.7 6401.97 11229 6416.55C11262.2 6431.13 11266.5 6427.08 11270.8 6416.55C11275.1 6406.02 11279.4 6264.01 11270.8 6225.67C11262.2 6187.33 11247.9 6134.41 11229 6104.71C11210.1 6075.01 8986.39 3624.82 8986.39 3624.82C8986.39 3624.82 8955.08 3584.59 8932.94 3571.36C8910.8 3558.13 8825.75 3531.94 8825.75 3531.94C8825.75 3531.94 1797.56 1869.87 1751.39 1863.93C1705.22 1857.99 1514.6 1859.61 1483.82 1863.93C1453.04 1868.25 1403.1 1879.59 1383.66 1931.42Z" fill="black" stroke="black"/>
<path d="M1156.86 2648.53C1147.98 2673.64 1059.66 2949.03 1049.67 2981.43C1039.68 3013.83 1095.57 3025.44 1131.75 3011.13C1167.93 2996.82 1234.35 2967.66 1234.35 2967.66C1234.35 2967.66 1625.84 2811.06 1711.16 2780.82C1796.47 2750.58 1918.51 2758.68 2007.61 2780.82C2096.7 2802.96 5877.69 3804.64 5877.69 3804.64L6466.01 3959.88L7202.55 4240.41L9054.43 4988.29C9054.43 4988.29 9156.76 5020.42 9325.78 5113.83C9494.79 5207.25 11077.2 6780.77 11077.2 6780.77C11077.2 6780.77 11244.6 6951.68 11273.2 6979.22C11301.9 7006.76 11348.6 7006.76 11348.6 6979.22C11348.6 6951.68 11349.9 6930.49 11348.6 6899.3C11346 6837.25 11326.4 6738.92 11318.7 6704.91C11311 6670.89 11266.5 6624.18 11266.5 6624.18L9298.51 4655.39L9177.55 4559.54C9177.55 4559.54 9100.87 4497.44 9008.8 4452.35C8916.74 4407.26 8285.76 4162.65 8285.76 4162.65L7341.6 3804.64C7341.6 3804.64 2044.33 2448.19 1918.51 2418.22C1792.69 2388.25 1704.41 2395 1642.58 2418.22C1580.75 2441.44 1250.55 2584.54 1250.55 2584.54C1250.55 2584.54 1165.73 2623.42 1156.86 2648.53Z" fill="black" stroke="black"/>
<path d="M941.947 3319.46C933.577 3341.33 877.959 3524.39 867.159 3555.43C856.359 3586.48 869.589 3604.03 891.728 3604.03H1001.89C1031.32 3604.03 1834.81 3449.6 1834.81 3449.6C1834.81 3449.6 2106.16 3411.53 2242.77 3449.6C2379.39 3487.67 2996.87 3679.63 2996.87 3679.63L4405.96 4085.97L6152.28 4752.86L7072.68 5115.46L7930.72 5469.96L8738.54 5773.7L9450.51 6055.84C9450.51 6055.84 9579.3 6099.31 9687.3 6173.56C9795.29 6247.81 11232.5 7463.05 11269.5 7488.43C11306.4 7513.81 11319.9 7527.04 11351.5 7527.04H11386.9C11413.4 7527.04 11428.5 7522.99 11430.6 7495.45C11432.7 7467.91 11430.6 7498.42 11430.6 7444.69C11430.6 7390.96 11406.9 7288.09 11386.9 7256.77C11366.9 7225.45 9591.18 5636.27 9522.87 5594.15C9454.56 5552.04 9156.76 5437.83 9156.76 5437.83L7756.31 4890.55L6669.58 4450.46L5569.63 4007.13C5569.63 4007.13 2287.59 3081.33 2140.45 3054.87C1993.3 3028.41 1796.21 3054.87 1796.21 3054.87L1471.94 3132.09C1471.94 3132.09 1054.26 3257.52 1006.21 3272.96C958.146 3288.41 950.317 3297.59 941.947 3319.46Z" fill="black" stroke="black"/>
<path d="M3388.36 992.658C3322.75 1001.84 3069.49 1070.69 3087.58 1102.01C3105.67 1133.32 3140.23 1137.91 3140.23 1137.91L9051.46 2299.97C9051.46 2299.97 9171.61 2324.53 9200.77 2340.19C9229.93 2355.85 9246.4 2373.67 9246.4 2373.67C9246.4 2373.67 10944.4 4709.39 10955.7 4720.73C10967.1 4732.07 11001.8 4759.06 11027.8 4720.73C11033.5 4712.36 11027.8 4680.23 11027.8 4680.23C11027.8 4680.23 11008.1 4563.86 10989.2 4522.28C10970.3 4480.7 9371.14 2224.37 9371.14 2224.37L9283.39 2138.24C9283.39 2138.24 9246.4 2097.2 9200.77 2069.66C9155.14 2042.12 3566.55 992.658 3566.55 992.658C3566.55 992.658 3453.96 983.479 3388.36 992.658Z" fill="black"/>
<path d="M2678 1246.99C2635.61 1253.74 2378.04 1329.88 2378.04 1353.91C2378.04 1377.94 2380.2 1389.82 2403.15 1405.21C2509.26 1433.02 8906.21 2773.53 8906.21 2773.53C8906.21 2773.53 9034.46 2791.89 9093.58 2814.3C9152.71 2836.71 9181.33 2884.5 9181.33 2884.5L10805.1 4973.44C10805.1 4973.44 11001.9 5239.65 11025.1 5253.15C11048.3 5266.65 11089.6 5290.41 11112.1 5271.78C11134.5 5253.15 11112.1 5154.87 11112.1 5154.87C11112.1 5154.87 11093.2 5085.49 11077 5055.25C11060.8 5025.01 9301.21 2694.43 9301.21 2694.43L9246.4 2609.65L9200.77 2565.64C9200.77 2565.64 9100.6 2515.96 9051.46 2504.35C9002.33 2492.74 2820.02 1249.15 2796.26 1246.99C2772.5 1244.83 2720.39 1240.24 2678 1246.99Z" fill="black"/>
<path d="M3388.36 992.658C3322.75 1001.84 3069.49 1070.69 3087.58 1102.01C3105.67 1133.32 3140.23 1137.91 3140.23 1137.91L9051.46 2299.97C9051.46 2299.97 9171.61 2324.53 9200.77 2340.19C9229.93 2355.85 9246.4 2373.67 9246.4 2373.67C9246.4 2373.67 10944.4 4709.39 10955.7 4720.73C10967.1 4732.07 11001.8 4759.06 11027.8 4720.73C11033.5 4712.36 11027.8 4680.23 11027.8 4680.23C11027.8 4680.23 11008.1 4563.86 10989.2 4522.28C10970.3 4480.7 9371.14 2224.37 9371.14 2224.37L9283.39 2138.24C9283.39 2138.24 9246.4 2097.2 9200.77 2069.66C9155.14 2042.12 3566.55 992.658 3566.55 992.658C3566.55 992.658 3453.96 983.479 3388.36 992.658Z" stroke="black"/>
<path d="M2678 1246.99C2635.61 1253.74 2378.04 1329.88 2378.04 1353.91C2378.04 1377.94 2380.2 1389.82 2403.15 1405.21C2509.26 1433.02 8906.21 2773.53 8906.21 2773.53C8906.21 2773.53 9034.46 2791.89 9093.58 2814.3C9152.71 2836.71 9181.33 2884.5 9181.33 2884.5L10805.1 4973.44C10805.1 4973.44 11001.9 5239.65 11025.1 5253.15C11048.3 5266.65 11089.6 5290.41 11112.1 5271.78C11134.5 5253.15 11112.1 5154.87 11112.1 5154.87C11112.1 5154.87 11093.2 5085.49 11077 5055.25C11060.8 5025.01 9301.21 2694.43 9301.21 2694.43L9246.4 2609.65L9200.77 2565.64C9200.77 2565.64 9100.6 2515.96 9051.46 2504.35C9002.33 2492.74 2820.02 1249.15 2796.26 1246.99C2772.5 1244.83 2720.39 1240.24 2678 1246.99Z" stroke="black"/>
<path d="M4683.78 519.63L4435.66 607.378L4464.28 674.067L9236.41 1480.27C9236.41 1480.27 9347.11 1494.31 9382.48 1504.84C9417.84 1515.37 9437.01 1556.13 9437.01 1556.13C9437.01 1556.13 10288.2 2892.87 10312.3 2920.14C10336.4 2947.41 10370.1 2953.19 10391.7 2933.37C10415.3 2911.77 10400.9 2872.89 10391.7 2851.56C10382.5 2830.23 9530.97 1346.65 9495.06 1317.46C9459.15 1288.27 9460.77 1290.73 9406.5 1272.91C9352.24 1255.09 4912.47 519.63 4912.47 519.63H4683.78Z" fill="black"/>
<path d="M4029.59 751.285C3948.59 767.214 3797.39 813.653 3793.07 840.112C3788.75 866.572 3803.6 891.141 3829.25 906.801C3854.9 922.46 9118.42 1829.1 9212.11 1859.61C9305.8 1890.12 9362.23 1958.42 9362.23 1958.42L9437.01 2043.47L10865.8 4198.56C10865.8 4198.56 10903.6 4243.65 10927.1 4249.59C10950.6 4255.53 10980 4240.95 10988.4 4229.07C10996.8 4217.19 11005.1 4193.43 10988.4 4164.27C10971.7 4135.11 9455.1 1772.94 9437.01 1750.26C9418.92 1727.58 9413.52 1711.92 9382.48 1692.48C9351.43 1673.04 9292.3 1645.77 9249.64 1634.43C9206.98 1623.09 4400.29 759.924 4288.51 751.285C4176.73 742.645 4110.59 735.355 4029.59 751.285Z" fill="black"/>
<path d="M1971.7 1507.81C1929.58 1514.56 1667.96 1617.96 1649.06 1626.6C1630.16 1635.24 1629.62 1662.51 1649.06 1668.99C1668.5 1675.47 8804.69 3276.53 8824.4 3286.79C8844.11 3297.05 8996.39 3345.11 9025.82 3366.17C9055.24 3387.23 10849.1 5479.68 10849.1 5479.68C10849.1 5479.68 11078.3 5728.61 11087.5 5748.32C11096.7 5768.03 11138 5824.46 11145.5 5836.61C11195.3 5916.56 11243.3 5871.17 11229 5795.57C11214.6 5719.97 11200.3 5706.74 11194.4 5690.27C11188.5 5673.8 11145.5 5595.77 11145.5 5595.77L9163.24 3164.48L9071.71 3075.93C9071.71 3075.93 9005.3 3029.49 8971.01 3017.88C8936.72 3006.27 2184.72 1514.56 2116.42 1507.81C2048.11 1501.06 2013.82 1501.06 1971.7 1507.81Z" fill="black" stroke="black"/>
<path d="M4459.69 11506.7C4483.18 11529.4 5867.71 12305.1 5990.01 12326.2C6112.32 12347.2 6128.52 12338.3 6173.88 12326.2C6219.23 12314 6375.57 12186 6389.06 12163.9C6402.56 12141.8 6404.45 12110.2 6389.06 12092.1C6373.68 12074 6323.72 12054.8 6323.72 12054.8L4608.46 11453C4608.46 11453 4501.81 11422 4477.51 11427.9C4453.21 11433.8 4443.22 11453 4443.22 11453C4443.22 11453 4436.2 11484.1 4459.69 11506.7Z" fill="black" stroke="black"/>
<path d="M7028.13 11661.2C7008.69 11646.9 6970.08 11628.8 6942.82 11618.5C6915.55 11608.3 5996.76 11298 5996.76 11298L5006.15 10945.7L3492.84 10430.5L1903.66 9871.39C1903.66 9871.39 1426.04 9718.3 1365.03 9666.19C1304.01 9614.08 1202.49 9445.07 1202.49 9445.07L730.002 8726.35C730.002 8726.35 418.7 8246.03 412.49 8238.2C406.28 8230.37 381.98 8207.15 372.261 8205.26C362.541 8203.37 352.011 8205.26 343.911 8216.33C335.812 8227.4 332.032 8424.76 332.032 8424.76C332.032 8424.76 326.092 8499.01 332.032 8517.91C337.972 8536.81 435.979 8747.95 497.808 8840.01C559.636 8932.08 1046.16 9498.8 1046.16 9498.8C1046.16 9498.8 1192.23 9679.96 1249.74 9727.75C1307.25 9775.54 1963.87 10149.5 1963.87 10149.5C1963.87 10149.5 2251.68 10332.8 2440.95 10419.7C2630.21 10506.7 3003.07 10648.7 3003.07 10648.7L4145.42 11056.1C4145.42 11056.1 6647.98 11923.3 6675.79 11929.8C6703.6 11936.3 6726.01 11938.5 6751.66 11929.8C6777.31 11921.2 7007.07 11748.1 7028.13 11727.6C7049.19 11707.1 7047.57 11675.5 7028.13 11661.2Z" fill="black" stroke="black"/>
<path d="M411.41 7650.69C425.449 7655.82 465.678 7697.94 490.248 7730.34C514.817 7762.74 611.205 7904.76 611.205 7904.76L851.229 8230.91L1380.96 8913.99C1380.96 8913.99 1425.69 8977.96 1464.92 9007.41C1494.66 9029.73 1548.62 9052.77 1548.62 9052.77L5825.31 10549.1C5825.31 10549.1 7535.45 11132.5 7572.71 11144.9C7609.97 11157.4 7687.19 11196.5 7703.93 11216.8C7720.67 11237 7703.93 11274.5 7703.93 11274.5C7703.93 11274.5 7672.07 11313.7 7658.57 11324.2C7645.07 11334.8 7499.27 11443 7465.79 11454.9C7432.31 11466.8 7360.99 11479.1 7301.64 11454.9C7291.77 11450.9 7277.07 11443 7277.07 11443L5963.82 10974.8L4350.61 10416L3005.23 9943.21L1623.95 9468.29L1423.88 9386.48C1423.88 9386.48 1357.2 9346.52 1330.74 9316.01C1304.28 9285.5 1058.04 8913.99 1058.04 8913.99L538.306 8200.67L416.809 8043.53C416.809 8043.53 387.11 7988.72 375.5 7964.43C363.891 7940.13 357.951 7893.96 355.791 7859.67C353.631 7825.38 359.841 7698.48 362.811 7684.98C365.781 7671.48 371.637 7656.16 387.11 7650.69C396.057 7647.53 397.37 7645.56 411.41 7650.69Z" fill="black" stroke="black"/>
<path d="M688.692 4120.26C695.982 4091.37 749.441 3929.38 759.97 3893.74L760.227 3892.87C770.551 3857.92 773.777 3847 810.999 3843.13C848.528 3839.23 2129.42 3745.62 2181.21 3749.29C2238.45 3753.34 2346.99 3774.4 2346.99 3774.4L3007.12 3965.01L4426.21 4476.65L8373.51 6032.08L9316.87 6392.52C9316.87 6392.52 9626.01 6499.44 9723.48 6547.77C9820.94 6596.1 10197.3 6899.84 10197.3 6899.84L10891.2 7419.85L11371.2 7774.08C11371.2 7774.08 11475.5 7858.32 11480.3 7889.37C11485.2 7920.41 11512.2 8125.61 11512.7 8141.81C11513.3 8158.01 11506 8180.69 11480.3 8166.11C11454.7 8151.53 11402.6 8113.46 11402.6 8113.46L11159.6 7943.9L10490.8 7486.81L10050.4 7193.32L9702.69 7011.08L2524.92 4222.86C2524.92 4222.86 2486.58 4206.93 2401.26 4195.59C2315.94 4184.25 736.211 4159.14 718.661 4158.06C701.112 4156.98 681.402 4149.15 688.692 4120.26Z" fill="black" stroke="black"/>
<path d="M533.985 4589.78C549.644 4547.12 568.545 4489.34 585.285 4443.44C602.024 4397.54 627.404 4404.56 652.243 4405.68C677.082 4406.79 1939.84 4501.48 2064.58 4520.66C2189.31 4539.83 2318.1 4570.61 2318.1 4570.61L9909.5 7496.79L10079.3 7578.33L10823.4 8017.07L11265.9 8285.44C11265.9 8285.44 11315.9 8315.68 11306.4 8346.46C11297 8377.24 11274.9 8403.97 11274.9 8403.97C11274.9 8403.97 11207.9 8498.2 11190.6 8515.21C11173.3 8532.21 11109.9 8504.41 11109.9 8504.41L10529.1 8193.92L9939.47 7922.03L2759.54 5189.7L2318.1 5032.29C2318.1 5032.29 2202.27 4988.56 2064.58 4951.84C1926.88 4915.11 597.434 4685.89 556.665 4678.33C515.897 4670.77 518.326 4632.43 533.985 4589.78Z" fill="black" stroke="black"/>
<path d="M466.488 4976.57L466.488 4955.35C466.488 4886.23 519.137 4891.63 562.066 4902.97C604.995 4914.31 1890.16 5280.42 1890.16 5280.42L2391.81 5447.82L2814.62 5619.54L9220.75 8049.2L9968.62 8332.43L10349.6 8495.23C10349.6 8495.23 10933.8 8763.61 10953.3 8773.87C10972.7 8784.12 10979.5 8828.4 10953.3 8862.15C10927.1 8895.9 10866.3 8969.07 10842 8996.88C10817.8 9024.69 10792.6 9033.33 10767.5 9024.69C10742.4 9016.05 10205.4 8829.75 10205.4 8829.75L9764.24 8657.77L2708.51 6015.89L2092.39 5778.02L902.527 5346.3L495.377 5180.53C495.377 5180.53 466.488 5166.21 466.488 5137.33C466.488 5111.34 466.488 5040.79 466.488 4976.57Z" fill="black" stroke="black"/>
<path d="M11598.7 1439.94V1500.14L11657.5 1559.77V3267.95L11598.4 3327.92V3387.66H12108.1V3328.15L12047.1 3267.95V2278.84L12512.4 3058.23L12977 2249.14V3387.78L13050.7 3473.03L13127.2 3585.48C13127.2 3585.48 13189.1 3692.05 13210.2 3811.87C13231.3 3931.7 13216.4 4019.22 13200 4076.58C13183.5 4133.94 13181.3 4129.98 13174.1 4141.54C13167 4153.1 13165.1 4153.56 13160.6 4160.58C13156.2 4167.61 13156.2 4174.41 13156.2 4174.41C13156.2 4174.41 13156.1 4210.8 13156.2 4217.27C13156.3 4223.73 13156.2 4226.68 13162.9 4226.68C13169.6 4226.68 13179.9 4226.68 13182.4 4226.68C13184.9 4226.68 13186.3 4226.22 13188.8 4223.73C13191.3 4221.23 13274.7 4131.68 13274.7 4131.68C13274.7 4131.68 13318 4085.35 13338.5 4049.94C13356.8 4018.42 13367.5 3973.31 13367.5 3955.85C13367.5 3938.39 13366.2 1559.43 13366.2 1559.43L13425.9 1500.37V1439.94H12977L12512.4 2248.69L12046.5 1439.94H11598.7Z" fill="#FF0000" stroke="black"/>
<path fill-rule="evenodd" clip-rule="evenodd" d="M13606.2 2027.06C13606.2 2351.51 13606.2 2623.58 13606.2 2869.02C13606.2 3114.45 13916.7 3387.07 14191.9 3386.87C14466.8 3386.67 14776.8 3124.66 14776.8 2869.02C14776.8 2613.38 14776.8 2330.2 14776.8 2027.06C14776.8 1723.92 14488.3 1440.5 14192.8 1439.83C13896.6 1439.15 13606.2 1702.61 13606.2 2027.06ZM13995.2 2027.06C13995.2 1940.34 14093.2 1855.9 14191.5 1858.83C14286 1861.64 14386.3 1938.86 14386.3 2027.06V2799.98C14386.3 2885.46 14287.4 2994.32 14191.9 2994.85C14095.8 2995.39 13996.6 2890.79 13995.2 2799.98C13993.9 2709.18 13995.2 2113.78 13995.2 2027.06Z" fill="#FF0000"/>
<path d="M14386.3 2799.98C14386.3 2885.46 14287.4 2994.32 14191.9 2994.85C14095.8 2995.39 13996.6 2890.79 13995.2 2799.98C13993.9 2709.18 13995.2 2113.78 13995.2 2027.06C13995.2 1940.34 14093.2 1855.9 14191.5 1858.83C14286 1861.64 14386.3 1938.86 14386.3 2027.06M14386.3 2799.98C14386.3 2714.5 14386.3 2115.26 14386.3 2027.06M14386.3 2799.98V2027.06M13606.2 2027.06C13606.2 2351.51 13606.2 2623.58 13606.2 2869.02C13606.2 3114.45 13916.7 3387.07 14191.9 3386.87C14466.8 3386.67 14776.8 3124.66 14776.8 2869.02C14776.8 2613.38 14776.8 2330.2 14776.8 2027.06C14776.8 1723.92 14488.3 1440.5 14192.8 1439.83C13896.6 1439.15 13606.2 1702.61 13606.2 2027.06Z" stroke="black"/>
<path d="M17082 3387.1V3327.81L17021.9 3268.06V1859.51H17351.6L17412.1 1919.25H17441.4V1439.94H16183.1V1919.25H16213.1L16272.9 1859.51H16602.5V3268.06L16542.5 3327.81V3387.66L17082 3387.1Z" fill="#FF0000" stroke="black"/>
<path d="M21289.4 3387.1V3327.81L21229.2 3268.06V1859.51H21558.9L21619.4 1919.25H21648.7V1439.94H20390.4V1919.25H20420.4L20480.2 1859.51H20809.8V3268.06L20749.9 3327.81V3387.66L21289.4 3387.1Z" fill="#FF0000" stroke="black"/>
<path d="M18880 1439.94H19300.3V1589.25L19569.7 2008.92L19808.7 1589.25V1439.94H20258.9V1499.8L19749.6 2428.6V3267.95L19808.9 3327.81V3387.21H19300V3327.58L19359.4 3267.72V2428.6L18879.9 1499.8L18880 1439.94Z" fill="#FF0000" stroke="black"/>
<path d="M21786.8 1439.94H22903V1919.36H22865.7L22807.5 1858.71H22235.4V2248.8H22805V2608.05H22236.3V2968.78H22805.3L22866.1 2910.06H22902V3387.89H21786.7V3326.56L21846 3268.06V1559.77L21787 1499.35L21786.8 1439.94Z" fill="#FF0000" stroke="black"/>
<path fill-rule="evenodd" clip-rule="evenodd" d="M17591.4 1439.94V1499.12L17651.1 1558.98V3267.61L17590.8 3327.47V3387.78H18133.1C18133.1 3387.78 18700.9 3409.66 18759.8 2850.31V2825.15C18741.6 2518.27 18580.3 2413.07 18580.3 2413.07C18580.3 2413.07 18760 2279.18 18760 1979.11C18760 1679.03 18429 1439.6 18133.1 1439.6C17837.1 1439.6 17591.4 1439.94 17591.4 1439.94ZM18197.9 1857.69H18041.9V2218.65H18197.9C18197.9 2218.65 18392.9 2202.1 18371.6 2025.25C18350.3 1848.4 18197.9 1857.69 18197.9 1857.69ZM18041.9 2969.12V2608.17H18185C18185 2608.17 18387 2626.19 18371.6 2802.93C18356.2 2979.66 18185 2969.12 18185 2969.12H18041.9Z" fill="#FF0000" stroke="black"/>
<path d="M15674.3 2128.18V2023.55C15674.3 2023.55 15661.7 1861.32 15495.1 1861.32C15328.4 1861.32 15314.5 2023.55 15314.5 2023.55C15314.5 2292.56 16063.2 2243.25 16064.1 2803.04V2846.57C16064.1 2846.57 16037.8 3388.23 15495.1 3388.23C14952.3 3388.23 14924.6 2849.75 14924.6 2849.75V2728.45H15314.8V2803.04C15314.8 2803.04 15313.1 2955.52 15493.7 2966.85C15674.3 2978.19 15673.5 2803.04 15673.5 2803.04C15673.5 2530.17 14924.9 2602.39 14924.9 2023.55V1978.65C14924.9 1978.65 14970.5 1440.17 15495.1 1440.17C16019.6 1440.17 16063.2 1978.65 16063.2 1978.65V2128.18H15674.3Z" fill="#FF0000" stroke="black"/>
</svg>
