<svg id="Icons" height="512" viewBox="0 0 74 74" width="512" xmlns="http://www.w3.org/2000/svg"><path d="m32.44 60.67h-2.97a1 1 0 0 1 0-2h2.97a1 1 0 0 1 0 2z"/><path d="m69 60.67h-29.56a1 1 0 0 1 0-2h29.56a1 1 0 0 0 1-1v-40a1 1 0 0 0 -1-1h-18a1 1 0 0 1 -.9-.559l-2.673-5.441h-20.854l-2.673 5.441a1 1 0 0 1 -.9.559h-18a1 1 0 0 0 -1 1v40a1 1 0 0 0 1 1h7.56a1 1 0 1 1 0 2h-7.56a3 3 0 0 1 -3-3v-40a3 3 0 0 1 3-3h17.377l2.676-5.441a1 1 0 0 1 .9-.559h22.1a1 1 0 0 1 .9.559l2.676 5.441h17.371a3 3 0 0 1 3 3v40a3 3 0 0 1 -3 3z"/><path d="m22.47 60.67h-2.91a1 1 0 0 1 0-2h2.91a1 1 0 0 1 0 2z"/><path d="m37 51a13.334 13.334 0 1 1 13.333-13.333 13.348 13.348 0 0 1 -13.333 13.333zm0-24.667a11.334 11.334 0 1 0 11.333 11.334 11.345 11.345 0 0 0 -11.333-11.334z"/><path d="m69.208 70.875a1 1 0 0 1 -.707-.293l-63.583-63.582a1 1 0 1 1 1.414-1.416l63.584 63.584a1 1 0 0 1 -.708 1.707z"/></svg>