<?xml version="1.0" encoding="iso-8859-1"?>
<!-- Generator: Adobe Illustrator 19.0.0, SVG Export Plug-In . SVG Version: 6.00 Build 0)  -->
<svg version="1.1" id="Capa_1" xmlns="http://www.w3.org/2000/svg" xmlns:xlink="http://www.w3.org/1999/xlink" x="0px" y="0px"
	 viewBox="0 0 512 512" style="enable-background:new 0 0 512 512;" xml:space="preserve">
<g>
	<g>
		<path d="M256,0c-5.888,0-10.667,4.779-10.667,10.667V288c0,5.888,4.779,10.667,10.667,10.667s10.667-4.779,10.667-10.667V10.667
			C266.667,4.779,261.888,0,256,0z"/>
	</g>
</g>
<g>
	<g>
		<path d="M345.6,82.773c-5.397-2.325-11.669,0.128-14.037,5.504c-2.368,5.397,0.107,11.691,5.504,14.037
			c73.877,32.299,121.6,105.173,121.6,185.685c0,111.744-90.923,202.667-202.667,202.667S53.333,399.744,53.333,288
			c0-80.512,47.723-153.387,121.6-185.685c5.397-2.347,7.872-8.64,5.504-14.037c-2.347-5.376-8.619-7.829-14.037-5.504
			C84.757,118.464,32,198.997,32,288c0,123.52,100.48,224,224,224s224-100.48,224-224C480,198.997,427.243,118.464,345.6,82.773z"/>
	</g>
</g>
<g>
</g>
<g>
</g>
<g>
</g>
<g>
</g>
<g>
</g>
<g>
</g>
<g>
</g>
<g>
</g>
<g>
</g>
<g>
</g>
<g>
</g>
<g>
</g>
<g>
</g>
<g>
</g>
<g>
</g>
</svg>
