<svg width="35" height="27" viewBox="0 0 35 27" fill="none" xmlns="http://www.w3.org/2000/svg">
<path d="M3.45722 26.9061H31.2845C32.966 26.9061 34.3297 25.5456 34.3297 23.8678V13.8866C34.3297 12.2087 32.966 10.8483 31.2841 10.8483H27.8712L27.3727 0.525459H7.33438L6.83583 10.8483H3.45722C1.77526 10.8482 0.411621 12.2086 0.411621 13.8865V23.8683C0.411621 25.5456 1.77526 26.9061 3.45722 26.9061ZM27.4311 25.1856H26.8562H6.73533V22.3181V21.7446H27.4311V25.1856ZM31.8197 15.7498C32.2682 15.7498 32.632 16.1127 32.632 16.5601C32.632 17.0082 32.2682 17.3706 31.8197 17.3706C31.3711 17.3706 31.0073 17.0077 31.0073 16.5601C31.0073 16.1127 31.3711 15.7498 31.8197 15.7498ZM5.58557 13.1421H6.7249H7.02671H7.30031L7.41124 10.8481L7.88222 1.09874H26.8259L27.2963 10.8481L27.4075 13.1421H27.6814H27.9824H29.1558C29.4729 13.1421 29.7305 13.3987 29.7305 13.7156C29.7305 14.0325 29.4729 14.2891 29.1558 14.2891H5.58557C5.26842 14.2891 5.01068 14.0325 5.01068 13.7156C5.01068 13.3987 5.26842 13.1421 5.58557 13.1421Z" fill="black"/>
<path d="M24.5566 3.96626H10.1846V5.11324H24.5566V3.96626Z" fill="black"/>
<path d="M24.5566 6.83375H10.1846V7.98074H24.5566V6.83375Z" fill="black"/>
<path d="M11.3342 23.4652H22.8319V24.6121H26.8561V22.3182H7.31006V24.6121H11.3342V23.4652Z" fill="black"/>
</svg>
