<svg width="30" height="29" viewBox="0 0 30 29" fill="none" xmlns="http://www.w3.org/2000/svg">
<g clip-path="url(#clip0)">
<path d="M23.7563 27.2941H4.84912V4.63602H24.6981L24.2549 5.00076C23.9325 5.26754 23.749 5.66606 23.7563 6.08393V27.2941Z" fill="white"/>
<path d="M23.7451 7.82471V6.47075C23.7451 5.44526 24.5785 4.61388 25.6065 4.61388H5.7243L5.17032 5.46495C4.97491 5.76413 4.87097 6.1136 4.87118 6.47075V7.82471H1.91849C1.52378 7.82471 1.20386 7.50556 1.20386 7.11181V2.1657C1.20386 1.77195 1.52378 1.4528 1.91849 1.4528H27.9997C28.3944 1.4528 28.7143 1.77195 28.7143 2.1657V7.10628C28.7143 7.50003 28.3944 7.81918 27.9997 7.81918L23.7451 7.82471Z" fill="#BAC6F4"/>
<path d="M8.02333 26.7415H6.61623C6.3103 26.7415 6.06226 26.989 6.06226 27.2942C6.06226 27.5994 6.3103 27.8468 6.61623 27.8468H8.02333C8.32926 27.8468 8.5773 27.5994 8.5773 27.2942C8.5773 26.989 8.32926 26.7415 8.02333 26.7415Z" fill="#223E60"/>
<path d="M11.4911 26.7415H10.084C9.77807 26.7415 9.53003 26.989 9.53003 27.2942C9.53003 27.5994 9.77807 27.8468 10.084 27.8468H11.4911C11.797 27.8468 12.0451 27.5994 12.0451 27.2942C12.0451 26.989 11.797 26.7415 11.4911 26.7415Z" fill="#223E60"/>
<path d="M14.9591 26.7415H13.552C13.2461 26.7415 12.998 26.989 12.998 27.2942C12.998 27.5994 13.2461 27.8468 13.552 27.8468H14.9591C15.2651 27.8468 15.5131 27.5994 15.5131 27.2942C15.5131 26.989 15.2651 26.7415 14.9591 26.7415Z" fill="#223E60"/>
<path d="M18.4269 26.7415H17.0198C16.7139 26.7415 16.4658 26.989 16.4658 27.2942C16.4658 27.5994 16.7139 27.8468 17.0198 27.8468H18.4269C18.7328 27.8468 18.9809 27.5994 18.9809 27.2942C18.9809 26.989 18.7328 26.7415 18.4269 26.7415Z" fill="#223E60"/>
<path d="M21.8948 26.7415H20.4988C20.1929 26.7415 19.9448 26.989 19.9448 27.2942C19.9448 27.5994 20.1929 27.8468 20.4988 27.8468H21.9059C22.2118 27.8468 22.4599 27.5994 22.4599 27.2942C22.4599 26.989 22.2118 26.7415 21.9059 26.7415H21.8948Z" fill="#223E60"/>
<path d="M27.9997 0.900177H1.91851C1.21911 0.903217 0.652949 1.46801 0.649902 2.16572V7.1063C0.652949 7.804 1.21911 8.3688 1.91851 8.37184H4.31722V27.2941C4.31722 27.5993 4.56526 27.8468 4.8712 27.8468C5.17713 27.8468 5.42517 27.5993 5.42517 27.2941V6.47076C5.42517 5.75047 6.01052 5.16654 6.73256 5.16654H23.579C23.3262 5.55484 23.1915 6.00779 23.1912 6.47076L23.1579 27.2941C23.1579 27.5993 23.406 27.8468 23.7119 27.8468C24.0178 27.8468 24.2659 27.5993 24.2659 27.2941L24.2991 8.37736H27.9997C28.6991 8.37432 29.2652 7.80953 29.2683 7.11182V2.16572C29.2652 1.46801 28.6991 0.903217 27.9997 0.900177ZM28.1603 7.11182C28.1603 7.20031 28.0884 7.27209 27.9997 7.27209H24.2991V6.47076C24.2991 5.75047 24.8845 5.16654 25.6065 5.16654H26.1605C26.4664 5.16654 26.7145 4.9191 26.7145 4.6139C26.7145 4.30871 26.4664 4.06126 26.1605 4.06126H3.61921C3.31328 4.06126 3.06524 4.30871 3.06524 4.6139C3.06524 4.9191 3.31328 5.16654 3.61921 5.16654H4.72716C4.47192 5.55394 4.33523 6.00717 4.33384 6.47076V7.27209H1.91851C1.8298 7.27209 1.75785 7.20031 1.75785 7.11182V2.16572C1.75785 2.07723 1.8298 2.00545 1.91851 2.00545H27.9997C28.0884 2.00545 28.1603 2.07723 28.1603 2.16572V7.11182Z" fill="#223E60"/>
<path d="M8.39455 11.334H14.6212C14.9272 11.334 15.1752 11.0865 15.1752 10.7813C15.1752 10.4761 14.9272 10.2287 14.6212 10.2287H8.39455C8.08862 10.2287 7.84058 10.4761 7.84058 10.7813C7.84058 11.0865 8.08862 11.334 8.39455 11.334Z" fill="#223E60"/>
<path d="M17.0198 11.334H20.111C20.4169 11.334 20.665 11.0865 20.665 10.7813C20.665 10.4761 20.4169 10.2287 20.111 10.2287H17.0198C16.7139 10.2287 16.4658 10.4761 16.4658 10.7813C16.4658 11.0865 16.7139 11.334 17.0198 11.334Z" fill="#223E60"/>
<path d="M8.39455 14.5559H14.6212C14.9272 14.5559 15.1752 14.3084 15.1752 14.0032C15.1752 13.698 14.9272 13.4506 14.6212 13.4506H8.39455C8.08862 13.4506 7.84058 13.698 7.84058 14.0032C7.84058 14.3084 8.08862 14.5559 8.39455 14.5559Z" fill="#223E60"/>
<path d="M17.0198 14.5559H20.111C20.4169 14.5559 20.665 14.3084 20.665 14.0032C20.665 13.698 20.4169 13.4506 20.111 13.4506H17.0198C16.7139 13.4506 16.4658 13.698 16.4658 14.0032C16.4658 14.3084 16.7139 14.5559 17.0198 14.5559Z" fill="#223E60"/>
<path d="M8.39455 17.7832H14.6212C14.9272 17.7832 15.1752 17.5358 15.1752 17.2306C15.1752 16.9254 14.9272 16.6779 14.6212 16.6779H8.39455C8.08862 16.6779 7.84058 16.9254 7.84058 17.2306C7.84058 17.5358 8.08862 17.7832 8.39455 17.7832Z" fill="#223E60"/>
<path d="M17.0198 17.7832H20.111C20.4169 17.7832 20.665 17.5358 20.665 17.2306C20.665 16.9254 20.4169 16.6779 20.111 16.6779H17.0198C16.7139 16.6779 16.4658 16.9254 16.4658 17.2306C16.4658 17.5358 16.7139 17.7832 17.0198 17.7832Z" fill="#223E60"/>
</g>
<defs>
<clipPath id="clip0">
<rect width="28.6184" height="28.5493" fill="white" transform="translate(0.649902 0.0988541)"/>
</clipPath>
</defs>
</svg>
