<svg width="151" height="20" viewBox="0 0 151 20" fill="none" xmlns="http://www.w3.org/2000/svg">
<g clip-path="url(#clip0)">
<path d="M5.57107 11.1774L75.482 1.91685L145.393 11.1774C146.697 11.3443 148.776 11.3395 150.036 11.1667C151.265 10.9982 151.265 10.731 150.036 10.5625L77.8002 0.994855C76.5181 0.825084 74.4397 0.825084 73.1573 0.994855L0.921733 10.5625C-0.33818 10.7352 -0.301857 11.0106 1.00238 11.1774C2.27492 11.3402 4.29207 11.3402 5.5643 11.1774H5.57107Z" fill="#607D8B"/>
<path d="M77.8068 8.82205C76.5247 8.65227 74.4463 8.65227 73.1639 8.82205L0.928682 18.3897C-0.331232 18.5624 -0.295217 18.8377 1.00933 19.0046C2.28187 19.1674 4.29902 19.1674 5.57155 19.0046L75.4824 9.7449L145.393 19.0055C146.698 19.1723 148.776 19.1676 150.036 18.9948C151.265 18.8263 151.265 18.5591 150.036 18.3906L77.8068 8.82205Z" fill="#607D8B"/>
<path d="M147.718 11.3044C146.846 11.3046 146.01 11.259 145.393 11.1774L75.4822 1.91685L5.57133 11.1774C4.26709 11.3443 2.18837 11.3395 0.928454 11.1667C-0.30037 10.9982 -0.30037 10.731 0.928454 10.5625L73.164 0.994855C74.4461 0.825084 76.5245 0.825084 77.8069 0.994855L150.042 10.5625C151.323 10.7326 151.319 11.0079 150.035 11.1775C149.42 11.2588 148.586 11.3044 147.718 11.3044Z" fill="black"/>
<path d="M147.718 19.1325C146.846 19.1327 146.01 19.087 145.393 19.0055L75.4822 9.7449L5.57131 19.0055C4.26707 19.1723 2.18835 19.1676 0.92844 18.9948C-0.300691 18.8262 -0.300691 18.5591 0.92844 18.3905L73.164 8.8229C74.4461 8.65313 76.5245 8.65313 77.8069 8.8229L150.042 18.3905C151.323 18.5606 151.319 18.836 150.035 19.0056C149.42 19.0868 148.586 19.1324 147.718 19.1325Z" fill="black"/>
</g>
<defs>
<clipPath id="clip0">
<rect width="151" height="20" fill="white"/>
</clipPath>
</defs>
</svg>
